<?xml version="1.0" encoding="utf-8"?>
<!-- Generator: Adobe Illustrator 23.0.1, SVG Export Plug-In . SVG Version: 6.00 Build 0)  -->
<svg version="1.1" id="Layer_1" xmlns="http://www.w3.org/2000/svg" xmlns:xlink="http://www.w3.org/1999/xlink" x="0px" y="0px"
	 viewBox="0 0 3500 2000" style="enable-background:new 0 0 3500 2000;" xml:space="preserve">
<style type="text/css">
	.st0{fill:#96D9C9;}
	.st1{fill:#3C8F7C;}
	.st2{fill:#50BFA5;}
	.st3{fill:#184655;}
	.st4{fill:#86B1F2;}
	.st5{fill:#FAE0B2;}
	.st6{fill:#355389;}
	.st7{fill:#466EB6;}
	.st8{fill:#FF4C16;}
	.st9{fill:#F47458;}
	.st10{fill:#B75742;}
	.st11{fill:#13375B;}
	.st12{fill:#F7A491;}
	.st13{fill:#9BC1F9;}
	.st14{fill:#F7CC7F;}
	.st15{fill:#F48C7F;}
	.st16{fill:#07345A;}
	.st17{fill:#FFFFFF;}
</style>
<g>
	<path class="st0" d="M1962.69,798.72l23.4-22.64c-7.32-40.94-45.73-60.64-71.02-63.33c-68.11-7.23-102.82,39.6-117.43,114.69
		c-26.67,137.07,6.91,712.65,6.91,712.65c2.51-15.29,187.48-593.29,182.74-752.09L1962.69,798.72z"/>
	<path class="st1" d="M1031.72,1250.7l-2.9,21.47l-6.95-24.84c-19.53-6.15-36.5-8.26-49.95-5.2
		c-120.17,27.31,87.49,192.58,87.49,192.58s-66.18-41.55-130.28-67.85l-0.81,21.77l-8.2-24.6c-49.8-19.5-96.01-28.51-105.24-0.36
		c-8.69,26.5,8.8,51.59,38.9,73.92l34.6,1.21l-20.4,8.55c69.51,44.53,184.5,76.37,224.2,83.62c-37.97-5.96-130.8-18.04-185.81-6.17
		l8.63,14.37l-21.72-10.86c-19.25,6.21-31.21,16.49-29.93,32.68c2.46,30.96,136.79,42.11,136.79,42.11l490.7-4.55l2.73,1.37
		C1493.57,1599.91,1189.91,1308.65,1031.72,1250.7z"/>
	<path class="st2" d="M2571.01,1537.09c-9.47-43.95-105.56-56.86-228.05-32.77c43.62-14.9,103.54-48.83,134.57-64.33l-21.22-13.51
		l42.63,1.98c34.87-20.41,52.3-40.46,40.91-58.6c-8.51-13.55-27.17-19.18-52.47-19.12l-13.32,23.84l2.77-23.51
		c-63.81,3.68-78.28-6.73-164.36,28.06c53.79-27.92,61.56-36.58,65.09-47.8l-29.13-12.74h34.14
		c27.59-29.69,71.37-88.41,53.22-115.48c-14.98-22.33-80.77,8.67-122.75,24.77l-17.86,40.18l3.62-34.33
		c-133.5,58.15-88.25,11.5-88.25,11.5s139.36-288.28,57.26-281.8c-32.41,2.56-67.26,22.09-101.49,53.39l-0.87,28.66l-10.18-18.18
		c-24.93,24.44-49.62,54.04-73.18,85.81c31.95-67.11,56.19-133.03,58.6-182.11l-24.39-2.96l24.07-16.74
		c-2.27-24.8-12.09-43.55-31.99-53.46c-30.52-15.21-62.56,7.8-94.09,53.52l7.79,41.27l-19.56-23.12
		c-112.93,184.05-216.19,637.17-216.19,637.17l-8.19,24.58l331.77,16.38C2109.88,1607.63,2590.13,1625.86,2571.01,1537.09z"/>
	<g>
		<path class="st3" d="M2733.1,1609.81H834.47c-3.16,0-5.71-2.46-5.71-5.5s2.56-5.5,5.71-5.5H2733.1c3.16,0,5.71,2.46,5.71,5.5
			S2736.25,1609.81,2733.1,1609.81z"/>
	</g>
	<path class="st4" d="M2083.11,1414.58h-778.11c-29.72,0-53.81-21.86-53.81-48.82v-29.03c0-26.96,24.09-48.82,53.81-48.82h778.11
		l0,0c-35.59,35.3-36.21,89.24-1.43,125.2L2083.11,1414.58z"/>
	<path class="st5" d="M2072.21,1302.42h-391.56c-26.96,0-48.82,21.86-48.82,48.82l0,0c0,26.96,21.86,48.82,48.82,48.82h391.59
		C2053.95,1370.12,2053.98,1332.3,2072.21,1302.42z"/>
	<g>
		<path class="st6" d="M2048.07,1149.43c1.71-2.93-0.88-6.32-4.82-6.32h-619.68c-48.57,0-87.94,32.49-87.94,72.58l0,0
			c0,40.08,39.37,72.57,87.94,72.57h619.85c3.96,0,6.55-3.41,4.83-6.35l0,0C2023.71,1239.96,2023.77,1191.19,2048.07,1149.43z"/>
		<path class="st5" d="M2043.13,1158.73h-415.77c-30.71,0-55.61,24.9-55.61,55.61v4.17c0,30.71,24.9,55.61,55.61,55.61h416.66
			C2025.39,1237.14,2025.18,1195.69,2043.13,1158.73z"/>
	</g>
	<path class="st5" d="M1293.91,1136.66h399.91c35.46,0,64.21-31,64.21-69.24l0,0c0-38.24-28.75-69.24-64.21-69.24h-399.91l0,0
		c30.57,38.39,31.76,94.7,2.85,134.55L1293.91,1136.66z"/>
	<path class="st7" d="M1752.77,1067.42L1752.77,1067.42c0-38.24-29.08-69.24-64.95-69.24h-401.18c-1.87,0-3.38-1.63-3.37-3.62l0,0
		c0.02-1.97,1.52-3.55,3.37-3.55h636.42c39.59,0,71.68,34.21,71.68,76.42v0c0,42.21-32.09,76.42-71.68,76.42h-636.42
		c-1.85,0-3.35-1.59-3.37-3.55l0,0c-0.02-1.99,1.49-3.62,3.37-3.62h401.18C1723.69,1136.66,1752.77,1105.66,1752.77,1067.42z"/>
	<g>
		<path class="st8" d="M1781.12,1216.88h-42.8c-9.2,0-16.66,2.85-16.66,6.38v0.57h59.46V1216.88z"/>
		<path class="st9" d="M1817.62,1232.87c0-8.83-11.18-15.99-24.96-15.99h-54.92c10.46,0,18.93,5.43,18.93,12.13l-0.26,171.38
			l30.35-22.04l30.93,22.04L1817.62,1232.87z"/>
	</g>
	<g>
		<path class="st10" d="M2403.04,1414.33h-1156.2c-35.9,0-65.01,29.11-65.01,65.01v54.68c0,35.9,29.11,65.01,65.01,65.01h1156.2
			l-0.61-0.63C2352.97,1546.91,2353.24,1465.48,2403.04,1414.33z"/>
		<path class="st5" d="M2382.57,1441.67h-618.08c-35.9,0-65.01,29.11-65.01,65.01v0c0,35.9,29.11,65.01,65.01,65.01h618.07
			C2359.84,1531.43,2359.88,1481.89,2382.57,1441.67z"/>
	</g>
	<g>
		<path class="st11" d="M2079.1,1507.01h-50.12c-10.78,0-19.52,8.74-19.52,19.52v1.75h69.64V1507.01z"/>
		<path class="st6" d="M2031.02,1507.09c11.98-0.01,29.87,10.13,39.96,22.65l118.89,147.45l69.83-0.04l-113.07-140.23
			c-13.3-16.5-36.89-29.87-52.69-29.86L2031.02,1507.09z"/>
	</g>
	<g>
		<path class="st10" d="M984.77,1582.84l24.36-5.69c0,0,19.76,1.25,38.2-2.49c0,0,1.85,4.9,2.65,15.01
			c0.14,1.74-2.37,10.43-4.1,10.7c-6.27,0.96-17.31-0.13-36.89,0.32c0,0-30.83,3.64-47.32-1.8
			C945.18,1593.44,984.77,1582.84,984.77,1582.84z"/>
		<path class="st3" d="M1253.93,1184.07c1.35,14.14,13.22,19.13,24.29,28.08c7.43,6.01,6.15,22.23,0.47,32.31
			c-14.38,25.53-2.13,28.68,9.46,47.42c27.92,45.15-58.59,55.13-68.86,58.5c-10.27,3.36-17.23,7.44-23.3,6.76
			c-18.3-2.03-35.05-28.04-44.34-52.1c-9.29-24.06,13.27-25.33,14.42-39.15c1.15-13.82-25.25-16.79-17.42-42.89
			c8.47-28.24,20.42-52.17,36.3-60.76c26.27-14.2,58.2,0.65,65.46,12.06C1252.57,1177.7,1253.63,1180.98,1253.93,1184.07z"/>
		<path class="st5" d="M1255.96,1493.2c2.27,5.66,14.79,25.69,14.79,25.69l-175.67,1.75l-2.74-36.04
			c48.23-0.39,95.91-21.72,140.35-36.97C1233.82,1450.34,1254.86,1490.45,1255.96,1493.2z"/>
		<path class="st2" d="M1131.43,1354.97c0,0,9.43-66.59,24.6-73.5c15.17-6.92,97.34,2.67,109.64,10.18
			c12.3,7.51-8.19,85.71-11.33,107.59c-0.19,1.31-0.39,2.62-0.6,3.92c-5.19,31.58-2.19,63.89,8.95,93.77
			c-44.96,13.65-56.62,21.16-104.84,19.82l-18-105.32C1139.86,1411.42,1125.54,1360.45,1131.43,1354.97z"/>
		<path class="st12" d="M1221.29,1237.64c0,0,3.78,36.66,7.02,45.65c3.24,8.99-8.68,27.29-28.11,32.35
			c-19.43,5.06-5.29-19.53-5.75-29.04c-0.46-9.5-2.34-54.5-2.34-54.5L1221.29,1237.64z"/>
		<path class="st9" d="M1221.75,1241.85c-2.42,2.75-5.34,5.24-8.88,7.33c-7.34,4.33-14.07,5.28-19.87,3.95
			c-0.48-11.33-0.88-21.02-0.88-21.02l29.18,5.54C1221.29,1237.64,1221.46,1239.25,1221.75,1241.85z"/>
		<path class="st12" d="M1214.49,1170.68c0,0,11.47,3.03,18.22,14.22c6.75,11.19,10.49,43.56-13.57,57.74
			c-24.06,14.18-41.59-7.73-41.15-28.47S1183.85,1165.92,1214.49,1170.68z"/>
		<path class="st12" d="M1170.69,1205.48c0.26,5.39,3.02,9.62,6.15,9.46s5.45-4.66,5.19-10.04c-0.26-5.39-3.01-9.62-6.15-9.46
			C1172.75,1195.59,1170.43,1200.09,1170.69,1205.48z"/>
		<path class="st12" d="M1232.04,1213.73c-1.9,5.33-0.53,10.69,3.06,11.98c3.59,1.29,8.04-1.99,9.94-7.32
			c1.9-5.33,0.53-10.69-3.06-11.98C1238.39,1205.13,1233.94,1208.4,1232.04,1213.73z"/>
		<path class="st1" d="M1265.67,1291.64c0,0-14.01,7.35-22.6,27.86c-8.59,20.51,20.67,125.15,26.91,131.85s23.5,7.75,26.44-8.64
			C1299.37,1426.33,1289.44,1296.82,1265.67,1291.64z"/>
		<path class="st13" d="M1181.88,1277.63l24.16,145.07l-94.03,15.16l-29.85-135.7C1082.15,1302.16,1159.51,1270.84,1181.88,1277.63z
			"/>
		<path class="st13" d="M1000.39,1282.11c8.98-3.54,18.78-4.43,28.26-2.58c17.6,3.44,45.57,10.57,56.8,22.64
			c16.94,18.21,32.62,138.66,32.62,138.66l-73.1-16.39L1000.39,1282.11L1000.39,1282.11z"/>
		<path class="st14" d="M1251.86,1530.27c-12.29-34.14-151.58-158.41-188.45-148.85l19.8,75.79c0,0,41.38,123.37,81.93,139.29
			c40.55,15.91,78.52-2.05,78.52-2.05S1264.15,1564.41,1251.86,1530.27z"/>
		<path class="st12" d="M1201.85,1330.89c-1.73,3.47,9.34,9.66,12.56,12c3.22,2.34,16.57-0.07,16.57-0.07
			S1203.78,1327.03,1201.85,1330.89z"/>
		<path class="st15" d="M1082.85,1493.31c0,0-35.4,73.55-35.51,81.21c-0.17,11.03-51.18,8.01-40.1,3.29
			c2.55-1.09,10.57-5.15,11.19-5.68c3.29-2.84,32.67-94.18,32.67-94.18L1082.85,1493.31z"/>
		<path class="st14" d="M1094.14,1405.32c-1.71-1.89-19.65-9.01-33.46,8.19c-13.81,17.21-40.28,151.12-40.28,151.12l32.55,3.19
			C1052.95,1567.82,1133.96,1449.24,1094.14,1405.32z"/>
		<path class="st9" d="M988.85,1304.9l41.87,122.07c1.68,4.9,5.86,8.42,10.83,9.12c39.25,5.55,59.74,8.38,59.74,8.38
			s7.66,0.4,15.78,0.5l89.86-9.59c7.82-0.83,13.27-8.41,11.81-16.4l-21.87-119.86c-1.35-7.4-8.16-12.34-15.34-11.14l-86.45,14.53
			c-7.64-0.21-15.08-0.41-22.72-0.61l-68.01-15.23C994.06,1284.37,985.33,1294.64,988.85,1304.9z"/>
		<path class="st12" d="M1171.74,1364.28c0,0,24.12,4.47,32.35,4.22c8.24-0.25,18.92,2.35,18.92,2.35s26.92,63.3,30.78,70.36
			c11.53,21.08,43.49,18.59,42.96,1.01c-0.42-13.97-55.02-101.56-69.54-101.12c-14.51,0.44-59.96-9.04-61.32-3.27
			c-0.73,3.11,41.85,4.56,35.13,7.2c-4.17,1.64-37.5-2.11-37.38,1.81c0.12,3.92,30.11,4.29,33.34,7.34
			c3.23,3.04-31.92-3.73-31.72,2.93c0.1,3.35,30.96,0.93,34.34,6.02C1201.02,1365.25,1169.19,1357.68,1171.74,1364.28z"/>
		<g>
			<path class="st12" d="M1009.11,1353.94c-1.89-0.82-4.09,0.25-4.56,2.25c-0.48,2.05-0.58,4.53,0.95,6.17
				c3.02,3.25,24.12,6.36,24.23,3.23C1029.82,1363.18,1015.67,1356.78,1009.11,1353.94z"/>
			<path class="st12" d="M1005.01,1362.14c0,0-2.12,7.91-0.29,7.97c1.83,0.07,24.66,2.33,25.67-0.39
				C1031.41,1367.01,1007.95,1360.54,1005.01,1362.14z"/>
			<path class="st12" d="M1004.03,1370.3c0,0-0.65,3.51,1.24,5.54c1.89,2.03,23.14,0.7,23.92-2.67S1004.78,1367.71,1004.03,1370.3z"
				/>
			<path class="st12" d="M1007.27,1377.72c0,0-0.03,2.68,1.04,3.83c1.07,1.15,16.77-0.44,18.33-3.79
				C1028.2,1374.42,1009.1,1374.25,1007.27,1377.72z"/>
		</g>
		<path class="st12" d="M1060.51,1563.38c0,0-7.5,27.12-15.02,45.06c-4.93,11.74-6.2,23.45-9.46,29.31
			c-8.25,14.82-21.73,15.41-32.45,6.51c-10.71-8.9,3.66-46.45,3.66-46.45l33.81-47.57L1060.51,1563.38z"/>
		<path class="st9" d="M1036.03,1637.75c2.9-5.21,4.24-15.03,7.95-25.39c-5.17,3-13.85,5.26-18.57,4
			c-17.3-4.62-18.17-18.56-18.17-18.56s-18.03,38.49-7.32,47.39C1010.63,1654.1,1027.78,1652.57,1036.03,1637.75z"/>
		<polygon class="st10" points="1095.09,1302.51 1122.77,1445.81 1106.11,1444.81 1101.29,1444.47 1072.37,1301.91 		"/>
		<path class="st5" d="M1191.54,1588.12c9.48,17.44,28.37,20.15,45.38,18.72c18.81-1.58,39.52-11.87,45.08-33.47
			c5.94-23.06-1.88-51.61-15.57-69.71c-70.1-92.63-70.64-101.76-98.55-114.06c-30.13-13.29-142.02,177.87-142.02,177.87l30.73,15.7
			c0,0,46.09-38.52,75.54-72.3c3.46-3.97,13.31-24.52,13.31-24.52S1185.27,1576.59,1191.54,1588.12z"/>
	</g>
	<g>
		<path class="st14" d="M1192.57,1031.02c-29.63,4.48-38.91,43.17-14.56,60.84c4.37,3.17,7.37,7.9,8.6,13.17l4.24,18.11
			c1.17,4.99,5.97,8.25,11.04,7.48l11.22-1.7c5.07-0.77,8.7-5.3,8.34-10.41c-1.31-18.65-3.15-25.44,3.02-33.67
			C1242.51,1060.75,1222.21,1026.54,1192.57,1031.02z"/>
		<g>
			<path class="st5" d="M1199.04,1116.47c-0.01,0-0.02,0-0.03,0c-1.49,0.21-2.87-0.83-3.08-2.32l-5.52-39.48l-9.25-7.92
				c-1.14-0.98-1.28-2.7-0.3-3.84c0.98-1.14,2.7-1.28,3.84-0.3l10.81,9.27l5.81,41.53
				C1201.54,1114.87,1200.52,1116.24,1199.04,1116.47z"/>
		</g>
		<g>
			<path class="st5" d="M1212.78,1116.08c0.01,0,0.02,0,0.03,0c1.49-0.24,2.5-1.64,2.25-3.13l-6.4-39.35l6.49-10.3
				c0.8-1.27,0.42-2.96-0.85-3.76c-1.27-0.8-2.96-0.42-3.76,0.85l-7.59,12.05l6.73,41.39
				C1209.92,1115.29,1211.31,1116.3,1212.78,1116.08z"/>
		</g>
		<path class="st0" d="M1186.48,1104.58c0.04,0.15,0.09,0.3,0.13,0.45l4.24,18.11c1.17,4.99,5.97,8.25,11.04,7.48l11.22-1.7
			c5.07-0.77,8.7-5.3,8.34-10.41c-0.58-8.3-1.27-14.25-1.31-19.02L1186.48,1104.58z"/>
	</g>
	<path class="st9" d="M1186.99,742.73l-11.74-16.98l-20.64,0.05c-2.35,0.01-3.69-2.69-2.26-4.56l12.52-16.41l-6.42-19.62
		c-0.73-2.23,1.42-4.34,3.63-3.56l19.48,6.83l16.67-12.17c1.9-1.39,4.56,0.01,4.51,2.36l-0.48,20.63l16.73,12.09
		c1.9,1.38,1.4,4.34-0.85,5.02l-19.77,5.92l-6.33,19.64C1191.3,744.22,1188.33,744.66,1186.99,742.73z"/>
	<path class="st13" d="M2274.02,773.49l-8.62-12.47l-15.16,0.03c-1.73,0-2.71-1.97-1.66-3.35l9.2-12.06l-4.72-14.41
		c-0.54-1.64,1.04-3.19,2.67-2.61l14.31,5.02l12.25-8.94c1.39-1.02,3.35,0.01,3.31,1.73l-0.35,15.16l12.29,8.88
		c1.4,1.01,1.03,3.19-0.62,3.68l-14.52,4.35l-4.65,14.43C2277.19,774.59,2275,774.91,2274.02,773.49z"/>
	<polygon class="st15" points="2032.34,590.19 2013.28,586.98 2002.11,603.23 1980.99,598.12 1974.43,619.09 1950.3,614.37 
		1941.88,632.94 1917.91,632.19 1918.2,623.12 1936.11,623.68 1945,604.09 1968.2,608.63 1974.87,587.31 1998.17,592.94 
		2009.08,577.08 2026.75,580.05 2031.73,568.13 2040.1,571.63 	"/>
	<polygon class="st2" points="1491.14,649.28 1477.18,653.57 1467.81,631.87 1446.63,635.61 1436.96,620.52 1429.31,625.42 
		1442.25,645.6 1462.32,642.05 1472.08,664.63 1493.08,658.18 	"/>
	<path class="st15" d="M1080.09,879.17l-20.89,12.71l21.67,97.36c1.87,8.41,11.46,12.49,18.82,8.02l0,0
		c4.64-2.82,6.94-8.3,5.72-13.59l-5.3-22.86l21.92-13.34l18.13,15.17c4.13,3.46,10.01,3.9,14.61,1.1l0.4-0.24
		c7.37-4.48,8.15-14.88,1.52-20.41L1080.09,879.17z M1094.22,937.83l-4-17.89l14.07,11.76L1094.22,937.83z"/>
	<path class="st14" d="M2340.65,971.29c1.07-2.76,0.7-12.63,14.42-22.13c5.64-3.86,10.27-7.15,11.52-11.65
		c2.16-7.78-6.03-11.51-14.18-11.47c-4.22,0.02-7.66-3.36-7.8-7.58l0,0c-0.14-4.28,3.19-7.87,7.47-8.08
		c4.67-0.23,10.18,0.22,15.96,1.83c17.5,4.86,22.77,16.74,19.71,27.75c-2.8,10.08-10.87,14.97-17.45,19.14
		c-11.08,7.04-11.08,14.88-12.02,17.08L2340.65,971.29z M2332.12,988.63c1.95-7.03,8.25-10.7,15.15-8.79
		c7.16,1.99,10.4,8.31,8.58,15.38c-1.91,6.89-8.12,10.74-15.28,8.75C2333.55,1002.02,2330.21,995.52,2332.12,988.63z"/>
	<g>
		<path class="st14" d="M1756.08,464.9c-27.25,0-40.86,33.53-21.37,52.73c3.5,3.45,5.55,8.11,5.94,13.01l1.35,16.86
			c0.37,4.65,4.25,8.23,8.91,8.23h10.32c4.66,0,8.54-3.58,8.91-8.23c1.36-16.95,0.63-23.3,7.29-29.87
			C1796.94,498.43,1783.34,464.9,1756.08,464.9z"/>
		<g>
			<path class="st5" d="M1750.28,542.62c-0.01,0-0.02,0-0.03,0c-1.37-0.02-2.47-1.14-2.45-2.51l0.4-36.26l-7.24-8.38
				c-0.9-1.04-0.78-2.6,0.26-3.5c1.04-0.9,2.6-0.78,3.5,0.26l8.47,9.8l-0.42,38.13C1752.75,541.53,1751.64,542.62,1750.28,542.62z"
				/>
		</g>
		<g>
			<path class="st5" d="M1762.69,544.14c0.01,0,0.02,0,0.03,0c1.37-0.02,2.47-1.14,2.45-2.51l-0.4-36.26l7.24-8.38
				c0.89-1.04,0.78-2.6-0.26-3.5c-1.04-0.9-2.6-0.78-3.5,0.26l-8.47,9.8l0.42,38.13C1760.22,543.04,1761.33,544.14,1762.69,544.14z"
				/>
		</g>
		<path class="st0" d="M1740.61,530.22c0.01,0.14,0.04,0.28,0.05,0.42l1.35,16.86c0.37,4.65,4.25,8.23,8.91,8.23h10.32
			c4.66,0,8.54-3.58,8.91-8.23c0.6-7.54,0.8-12.98,1.41-17.28H1740.61z"/>
	</g>
	<polygon class="st5" points="1808.52,418.74 1784.96,458.68 1824.9,428.98 	"/>
	<polygon class="st5" points="1712.75,408.45 1736.83,449.46 1732.73,402.35 	"/>
	<polygon class="st5" points="1670.87,467.17 1709.18,482.23 1670.07,484.58 	"/>
	<polygon class="st5" points="1789.06,521.15 1804.42,540.61 1815.69,527.3 	"/>
	<polygon class="st5" points="1804.42,485.31 1839.24,470.97 1840.27,486.33 	"/>
	<polygon class="st5" points="1713.27,524.22 1680.5,539.59 1690.74,551.88 	"/>
	<path class="st0" d="M1324.43,731.62c5.36,0.43,15.83,2.61,25.46,5.36c11.78,3.37,18.67,6.57,23.83,12.02
		c5.05,4.87,7.69,11.93,5.48,19.65c-2.17,7.6-8.63,13.43-19.27,14.22l-0.07,0.25c8.99,5.45,14.11,14.86,10.96,25.88
		c-2.21,7.73-7.49,12.79-14.04,15.58c-7.62,3.17-18.8,2.98-35.78-1.87c-9.5-2.72-16.41-5.38-20.54-7.24L1324.43,731.62z
		 M1334.22,769.77l6.33,1.81c10.13,2.9,16.78,0.27,18.59-6.06c1.85-6.46-2.12-11.29-10.86-13.79c-4.18-1.2-6.66-1.63-8.38-1.85
		L1334.22,769.77z M1323.4,807.64c1.83,0.8,4.11,1.45,7.4,2.39c8.74,2.5,17.41,1.41,19.98-7.58c2.46-8.61-4.29-14.24-13.91-16.99
		l-6.59-1.88L1323.4,807.64z"/>
	<path class="st14" d="M2151.17,768.55c1.08,4.75-1.82,9.53-6.56,10.67c-4.42,1.06-10.04,1.9-16.51,2.12
		c-33.65,1.13-51.69-19.22-52.62-46.95c-1.12-33.22,21.94-52.5,51.4-53.49c5.85-0.2,10.99,0.24,15.15,0.96
		c5.01,0.87,8.26,5.77,7.16,10.73l-0.07,0.31c-1.03,4.65-5.53,7.73-10.22,6.89c-3.08-0.55-6.55-0.85-10.4-0.73
		c-17.47,0.59-30.69,11.59-29.96,33.25c0.66,19.5,12.63,31.38,32.27,30.72c3.27-0.11,6.7-0.58,9.85-1.24
		C2145.41,760.77,2150.09,763.81,2151.17,768.55L2151.17,768.55z"/>
	<path class="st7" d="M1059.9,1221.59c-2.35-6.97,1.57-14.8,8.56-17.11c7.27-2.4,13.9,1.17,16.66,8.41
		c2.63,7.29-0.31,14.53-7.88,17.26C1069.54,1232.91,1062.42,1229.1,1059.9,1221.59z M1057.52,1200.49l-22.66-54.13
		c-1.87-4.48,0.38-9.61,4.95-11.26l5.52-1.99c4.56-1.64,9.57,0.86,10.99,5.5l17.19,56.12L1057.52,1200.49z"/>
	<g>
		<g>
			<path class="st15" d="M2089.59,1151.37c0,0,58.4,25.45,63.55,26.58c3.23,0.71,40.35-37.76,60.58-52.79
				c0.94-0.7,4.53-5.81,5.54-6.32c12.04-6.05-8.31,28.79-8.31,28.79s-43.06,54.75-52.8,59.45c-12.24,5.89-72.7-24-72.34-25.73
				L2089.59,1151.37z"/>
			<path class="st3" d="M2080.33,1096.71c2.51-17.21,14.46-53.84,3.44-68.49c-15.5-20.6-48.24-19.71-63.71,0.09
				c-7.09,9.07-10.93,20.2-14.67,31.08c-2.41,7.03-4.85,14.1-8.25,20.73c-3.04,5.92-6.52,13.32-12.3,16.92
				c-25.71,16.01-54.5,26.33-56.36,62.4c-2.2,42.78,44.67,96.31,102.22,70.4c22.03-9.92,50.89-41.99,60.31-64.18
				c4.25-10,2.21-8.95-0.13-24.2C2088.78,1127.81,2078.3,1110.57,2080.33,1096.71z"/>
			<path class="st6" d="M2049.02,1122.3l78.18,43.02l-18.44,27.99c0,0-58.86-22.43-70.76-25.64
				C2026.1,1164.46,2035.47,1121.13,2049.02,1122.3z"/>
			<path class="st12" d="M2047.68,1084.98c0,0-2.03,29.77-3.55,38.12c-1.57,8.62-2.52,44.53,15.41,48.92
				c17.94,4.38,11.2-44.24,11.5-52.96c0.3-8.72,2.05-37.04,2.05-37.04L2047.68,1084.98z"/>
			<path class="st9" d="M2047.42,1088.55c1.35,2,2.97,3.93,4.89,5.74c6.61,6.23,13.41,8.26,19.61,7.45
				c0.56-9.87,1.17-19.72,1.17-19.72l-25.41,2.96C2047.68,1084.98,2047.58,1086.33,2047.42,1088.55z"/>
			<path class="st12" d="M2066.21,1028c0,0-10.91,0.35-19.25,8.97c-8.34,8.61-18.33,36.76,0.34,54.37
				c18.67,17.61,37.12,2.48,40.97-16.15C2092.13,1056.57,2094.65,1030.03,2066.21,1028z"/>
			<path class="st3" d="M2076.44,1028.87c0,0-11.38,29.36-38.25,26.88c-12.17-1.12-14.93,15.5-14.93,15.5s9.96-39.47,22.46-45.34
				C2058.22,1020.05,2076.44,1028.87,2076.44,1028.87z"/>
			<path class="st12" d="M2041.65,1062.85c0.61,5.15-1.71,9.66-5.2,10.07c-3.48,0.41-6.8-3.43-7.41-8.58s1.71-9.66,5.2-10.07
				C2037.72,1053.87,2041.04,1057.71,2041.65,1062.85z"/>
			<path class="st10" d="M2241.4,1072.5l-66.18,135.23c-1.58,3.23-1.09,6.97,1.08,8.24l48.35,28.32l60.44-119.84
				c0,0-26.33-39.4-36.21-54.17C2247.04,1067.55,2243.28,1068.67,2241.4,1072.5z"/>
			<path class="st5" d="M2183.71,1203.29l57.59-117.67c1.88-3.84,5.64-4.96,7.47-2.23c8.02,12,20.15,30.15,28.87,43.19
				l-54.25,107.56l-38.6-22.61C2182.62,1210.27,2182.13,1206.52,2183.71,1203.29z"/>
			<path class="st15" d="M2215.17,1116.26c0.68-1.18,3.82-3.76,5.14-4.11c2.8-0.74,6.17-0.63,6.73,1.17
				c0.81,2.62-7.45,5.51-7.45,5.51l-4.49,6.51C2215.1,1125.34,2213,1120.03,2215.17,1116.26z"/>
			<path class="st12" d="M2045.41,1115.07c0,0,20.38,16.83,26.23,22.68c5.8,5.8,15.96,12.89,15.96,12.89l-16.47-22.79l-10.44-9.74
				L2045.41,1115.07z"/>
			<path class="st15" d="M2298.35,1384.83c-3.16-2.63-6.05-10.14-7.21-13.44c-6.85-35.45-39.23-131.31-74.5-131.31
				c-30.73,0-125.63,74.42-170.01,117.44c-12.82,12.42-11.95,1.88-4.1,4.78c4.69,1.73,36.38,54.44,41.45,54.67
				c15.5,0.71,29.83-9.67,42.76-16.89c19.72-11.01,33.43-23.56,44.89-40.67c29.03-43.33,39.91-68.83,48.65-85.42
				c0,0,8.25,34.11,12.29,42.33c9.13,18.57,36.43,64.33,47.11,82.16l41.88-1.14C2321.56,1397.35,2302.45,1388.25,2298.35,1384.83z"
				/>
			<path class="st12" d="M2219.37,1259.88c0,0-140.65,65.55-149.53,88.08s-2.05,55.99,18.44,62.82
				c20.48,6.83,147.48-101.74,147.48-101.74s16.39,30.04,39.6,50.53c12.38,10.92,33.3,19.83,45.24,27.82
				c10.46,7.01,12.8,13.83,12.8,13.83l29.36,1.37c0,0-4.95-1.69-13.83-13.66C2318.95,1348.53,2249.4,1254.61,2219.37,1259.88z"/>
			<path class="st11" d="M2165.09,1251.69c0,0,45.18,48.71,54.05,112.89c0,0-70.78,30.5-105.61,48.93
				c-34.82,18.44-73.74-0.68-86.03-21.17c-12.29-20.48,0-78.18,0-78.18l72.38-11.27L2165.09,1251.69z"/>
			<path class="st6" d="M2272.29,1386.31c-3.6-1.37-4.86,16.84-5.45,20.9c-0.67,4.57,1.52,7.67,2.07,8.05
				c1.49,1.03,59.49,2.18,70.59-0.8c0.75-0.2,2.32-1.14,2.59-1.38c8.15-7.11-29.54-25.95-37.14-24.37
				C2298.19,1390.11,2288.48,1392.48,2272.29,1386.31z"/>
			<path class="st7" d="M2044.24,1122.98c0,0-11.03-0.1-22.83,25.32c-14.5,31.24,6.19,150.46,4.69,167.47c0,0,5.11,5.88,34.89,10.18
				c26.38,3.81,41.3-15.03,41.3-15.03s-6.71-46.03,3.46-89.33c5.51-23.46,8.42-46.21-13.36-67.31S2044.24,1122.98,2044.24,1122.98z"
				/>
			<path class="st7" d="M2320.98,1387.44c-3.6-1.37-6.7,16.17-6.43,20.46c0.29,4.61,1.46,7.96,2.01,8.34
				c1.49,1.03,59.55,1.88,70.64-1.1c0.75-0.2,2.32-1.14,2.59-1.39c8.15-7.11-33.76-24.89-41.36-23.31
				C2341.68,1391.86,2337.17,1393.61,2320.98,1387.44z"/>
			<path class="st9" d="M2282.16,1066.9l-109.7,159.74c-2.53,3.68-1.93,8.16,1.25,9.35l74.19,27.65l87.75-125.78l-43.78-72.54
				C2289.89,1062.04,2284.94,1062.85,2282.16,1066.9z"/>
			<path class="st12" d="M2256.08,1188.01c-1.41-2.72-12.8,3.32-12.8,3.32s-10.14,1.76-10.86,1.38c-0.81-0.43,6.81-1.06,6.81-1.06
				s12.46-4.26,12.32-5.65c-0.57-5.75-8.37,1.41-14.49,1.67c-4.67,0.2-9.74-0.01-14.24-0.64c-1.79-1.01,2.77-3.27,2.77-3.27
				s5.99-2.69,5.04-4.27c-2.33-3.83-16.34,3.45-19.29,6.15c-1.98,1.81-4.44,5.32-7.88,7.27c-14.97,8.47-32.91,22.99-54.08,33.19
				c-7.01-5.89-74.66-66.61-76.36-68.08l-36.95,29.1c0.05,0.04,105.99,80.72,111.88,80.53c7.4-0.24,51.52-46.81,63.46-57.9
				c1.81-1.68,13.15-2.94,16.27-2.51c6.93,0.97,19.93-4.47,19.93-4.47c4-4.23-14.76,0.04-12.98-1.06c0.79-0.49,5.37-0.95,9.94-1.61
				c4.65-0.67,8.86-3.33,9.43-4.6c1.11-2.49-10.45,1.08-10.45,1.08l-9.64,0.59l9.22-1.88
				C2243.13,1195.29,2257.46,1190.66,2256.08,1188.01z"/>
			<path class="st4" d="M2062.64,1139.54c-11.95-12.22-34.91-10.45-41.62,7c-1.86,4.85-1.78,18.78,0.34,23.9
				c8.5,20.48,58.04,53.94,58.04,53.94l27.31-37.21L2062.64,1139.54z"/>
		</g>
	</g>
	<g>
		<path class="st12" d="M1571.73,783.63c0-1.57,1.93-11.69,1.93-11.69s-4.5-14.35-4.96-14.38c-9.27-0.67-16.26,5.63-14.69,14.1
			l0.09,0.28c4.8,15.31,17.71,26.69,33.51,29.52c3.6,0.65,7.41,1.32,11.32,2.01c-1.84-6.15-2.97-12.43-2.91-18.89
			C1582.47,784.48,1571.73,784.21,1571.73,783.63z"/>
		<path class="st6" d="M1728.45,720.31c-0.26-0.77-81.48,52.06-81.48,52.06s-34.67,0.34-60.28,0.12
			c-0.07,7.73,1.18,15.26,3.22,22.63c25.3,4.79,54.14,9.85,60.7,9.34c12.22-0.94,73.51-31.52,73.51-31.52
			S1728.64,720.88,1728.45,720.31z"/>
		<path class="st7" d="M1729.36,917.58c-0.17-1.33-17.33-60.18-19.12-112.89c-1.39-40.88,11.27-77.52,17.75-84.21
			c2.4-2.5,24.69-7.85,24.69-7.85l-8.12,13.48c-8.25,15.58-10.49,29.37-14.07,46.95c-10.39,50.97,36.28,152.97,33.91,153.63
			C1761.76,927.42,1730.02,922.8,1729.36,917.58z"/>
		<polygon class="st13" points="1551.35,711.86 1537.1,721.16 1579.72,792.9 1593.12,734.65 		"/>
		<polygon class="st13" points="1560.17,700.57 1578.08,760.11 1592.43,734.39 		"/>
		<polygon class="st13" points="1678.48,693.7 1692.26,743.7 1590.73,734.48 		"/>
		<path class="st12" d="M1620.57,905.22c0,0-43.15,52.72-43.27,60.38c-0.17,11.03-51.17,8-40.1,3.29
			c2.55-1.09,10.57-5.15,11.19-5.68c3.29-2.84,37.29-69.38,37.29-69.38L1620.57,905.22z"/>
		<path class="st16" d="M1514.73,973.91l32.8-10.21c0,0,11.32,5.77,29.76,2.02c0,0,4.81,7.73,5.61,17.84c0.14,1.75,1,6.92-0.73,7.18
			c-6.27,0.96-23.63,0.56-43.21,1c0,0-26.38,0.31-42.88-5.14C1479.59,981.18,1514.73,973.91,1514.73,973.91z"/>
		<path class="st10" d="M1829.5,917.81c0,0-38.82-8.87-75.11-34.82c-41.98-30.03-89.22-61.26-107.88-58.72
			c-15.02,2.05-102.42,122.22-102.42,122.22l42.33,18.44l76.47-78.52c0,0,78.12,80.53,103.78,86.03
			C1825.14,984.95,1843.82,941.85,1829.5,917.81z"/>
		<path class="st14" d="M1535.1,721.18l58.87,124.72c0.27,0.57,0.78,0.98,1.39,1.12l39.32,10.93l-50.25-123.56l-46.82-16.03
			C1535.9,717.78,1534.33,719.54,1535.1,721.18z"/>
		<path class="st16" d="M1735.46,603.34c0,0,10.88-14.83,23.02-0.01c0,0,7.22-5.35,13.67,1.73c0,0,13.52-6.01,19.6,14.57
			c0,0,7.06-2.28,9.11,6.19c2.04,8.48-1.6,14.76-1.6,14.76s4.45,2.53,3.61,10.67c-0.72,6.92-6.15,8.65-6.15,8.65
			s-0.06,11.52-4.54,15.55c-4.48,4.03-11.38,3.24-11.38,3.24s-1,6.37-6.8,6.55c-5.8,0.18-13.59-4.38-19.69-1.11
			c-6.1,3.27-23.08,2.79-23.08,2.79s-19.75-5.95-16.58-25.77c0,0-10.95-7.63-3.7-19.36c0,0-8.39-15.85,2.78-27.25
			C1724.9,603.16,1735.46,603.34,1735.46,603.34z"/>
		<path class="st12" d="M1675.53,1072.8c0,0,2.39,64.87,3.87,75.85c1.47,10.93-27.53,43.88-23.82,32.42
			c0.85-2.64,3.05-11.36,3.05-12.17c0.02-4.35-10.75-78.34-10.75-78.34L1675.53,1072.8z"/>
		<path class="st16" d="M1644.64,1201.33l13.81-31.46c0,0,11.78-4.76,21.05-21.13c0,0,8.99,1.44,17.15,7.47
			c1.41,1.04,5.88,3.78,4.94,5.26c-3.38,5.36-15.08,18.2-27.59,33.28c0,0-17.07,20.11-32,28.99
			C1627.08,1232.62,1644.64,1201.33,1644.64,1201.33z"/>
		<path class="st9" d="M1647.2,1140.39c3.03-3.08-30.69-169.02-14.34-185.04c16.36-16.02,125.63-39.6,125.63-39.6l14.34-50.53
			c0,0,45.69,13.4,64.18,40.97c10.11,15.08-0.23,49.46-2.05,53.26c-15.61,32.5-54.17,34.14-82.22,33.85
			c-25.81-0.27-71.63-0.62-71.63-0.62l-0.11,146.69c0,0-11.27,2.73-20.14,2.39C1648.71,1141.29,1647.2,1140.39,1647.2,1140.39z"/>
		<path class="st17" d="M1748.5,716.18l29.59-10.63c0,0,0.89,0.05,1.16,0.01c3.18-0.4,38.1,113.86,49.49,157.08
			c11.39,43.22-3.53,35.02-3.53,35.02s-26.11,16.27-56.48,17.41c-31.58,1.19-25.26-36.87-25.26-36.87s-16.63-79.47-14.68-106.51
			C1730.74,744.64,1748.5,716.18,1748.5,716.18z"/>
		<path class="st12" d="M1748.97,692.94l-0.12,14.56l-0.02,2.58c0,0-2.01,24.94,5.13,28.79c7.14,3.85,24.11-33.33,24.11-33.33
			l-7.68-42.3L1748.97,692.94z"/>
		<path class="st9" d="M1772.88,677c-3.56,15.26-15.31,25.85-24.02,30.48l0.11-14.54l21.42-29.7L1772.88,677z"/>
		<path class="st12" d="M1749.57,620.28c-13.87-2.89-26.92,7.74-27.21,21.69c-0.13,6.07,0.02,13.66,0.91,21.86
			c2.14,19.74,14.76,37.61,23.71,36.48c8.94-1.13,32.04-17.02,29.39-45.09C1774.73,637.9,1764.13,623.31,1749.57,620.28z"/>
		<path class="st12" d="M1770.06,658.28c0.55,4.34,3.88,7.5,7.43,7.05c3.55-0.45,5.99-4.34,5.43-8.68c-0.55-4.34-3.88-7.5-7.43-7.05
			C1771.94,650.04,1769.51,653.93,1770.06,658.28z"/>
		<path class="st16" d="M1709.58,615.39c-8.31,8.49-10.14,20.02-4.08,25.75s17.7,3.5,26.01-4.99c8.31-8.49,10.14-20.02,4.08-25.75
			C1729.54,604.67,1717.89,606.9,1709.58,615.39z"/>
		<path class="st16" d="M1734.49,618.33c0.4,3.18,4.57,5.27,9.31,4.67c4.74-0.6,8.25-3.67,7.85-6.85c-0.4-3.18-4.57-5.27-9.31-4.67
			C1737.6,612.08,1734.09,615.15,1734.49,618.33z"/>
		<path class="st16" d="M1712.08,646.04c0.52,4.09,4.22,6.99,8.26,6.48c4.04-0.51,6.9-4.24,6.38-8.33
			c-0.52-4.09-4.22-6.99-8.26-6.48C1714.42,638.22,1711.56,641.95,1712.08,646.04z"/>
		<path class="st7" d="M1778.07,705.55c0,0,28.96-4.7,38.7-0.56c6.19,2.63,14.07,55.16,14.07,55.16s0.32,53.12,3.94,68.1
			c12.27,50.78,29.42,95.25,27.49,97.75c-12.6,10.36-65.3,19.96-69.3,15.02C1748.75,886.53,1778.07,705.55,1778.07,705.55z"/>
		<path class="st12" d="M1826.43,759.4c0,0-29.01,89.66-41.7,99.06c-12.69,9.4-69.77-78.58-69.77-78.58s-25.26-14.34-27.06-14.49
			c-7.17-0.6,14.94-4.29,14.94-4.29l2.73-22.87c0,0,1.08,0.17,7.68,7.6c8.92,10.05,16.67,25.63,20.31,28.25l38.24,29.02l19.46-62.13
			L1826.43,759.4z"/>
		<polygon class="st5" points="1584.44,734.4 1596.44,733.23 1647.91,861.3 1634.68,857.95 		"/>
		<path class="st14" d="M1698.89,703.19l30.97,150.79c0.51,2.49-1.34,4.84-3.89,4.92l-78.06,2.41l-51.46-128.07l97.11-33.1
			C1695.89,699.34,1698.39,700.77,1698.89,703.19z"/>
		<path class="st4" d="M1730.33,768.62l-9.9,21.68c0,0,48.65,80.06,63.67,75.62s43.36-91.15,47.79-115.05
			c4.44-23.9-4.78-43.7-17.07-46.77c-12.29-3.07-21.85,17.75-25.61,26.63c-3.75,8.88-17.41,72.38-17.41,72.38L1730.33,768.62z"/>
		<g>
			<path class="st12" d="M1557.37,769.81c0,0-1.82-3.2-2.41-5.16c-0.58-1.95,11.39-8.75,16.13-5.65
				C1575.83,762.1,1563.17,766.82,1557.37,769.81z"/>
		</g>
		<g>
			<path class="st12" d="M1557.87,777.65c0,0-3.01-3.16-3.59-5.11c-0.58-1.95,15.35-9.97,20.09-6.88
				C1579.11,768.76,1563.67,774.65,1557.87,777.65z"/>
		</g>
		<g>
			<path class="st12" d="M1563.33,783.11c0,0-3.01-3.16-3.59-5.11c-0.59-1.96,11.39-8.75,16.13-5.65
				C1580.61,775.44,1569.13,780.11,1563.33,783.11z"/>
		</g>
		<path class="st12" d="M1708.14,747.11h-2.49c-1.18,0-2.35-0.13-3.51-0.38c-4.59-1-17.16-3.5-18.13-0.99
			c-1.19,3.07,18.09,6.66,18.09,6.66s-21.17-2.73-21.17,0.85c0,3.58,21.51,5.46,21.51,5.46s-18.78-0.68-19.12,1.37
			c-0.34,2.05,23.04,7.85,23.04,7.85s-18.95-4.1-20.83-1.71c-1.88,2.39,29.7,13.91,29.7,13.91L1708.14,747.11z"/>
		<path class="st12" d="M1563.33,783.11c0,0,10.35-5.84,13.09-4.02c2.73,1.82-8.88,10.58-8.88,10.58l1.39,3.2
			C1568.93,792.87,1561.51,787.13,1563.33,783.11z"/>
	</g>
</g>
</svg>
